{
  "accessors": [
    {
      "bufferView": 3,
      "componentType": 5126,
      "count": 28156,
      "max": [
        0.7523825764656067,
        1.2304134368896484,
        0.5420351624488831
      ],
      "min": [
        -0.7529475688934326,
        -0.09080390632152557,
        -0.6080036163330078
      ],
      "type": "VEC3"
    },
    {
      "bufferView": 3,
      "byteOffset": 337872,
      "componentType": 5126,
      "count": 28156,
      "max": [
        0.9999969005584717,
        0.9999359846115112,
        0.9999819993972778
      ],
      "min": [
        -0.9998757839202881,
        -0.9999985098838806,
        -0.9999710321426392
      ],
      "type": "VEC3"
    },
    {
      "bufferView": 4,
      "componentType": 5126,
      "count": 28156,
      "max": [
        0.9999734163284302,
        0.9998414516448975,
        0.9999905228614807,
        1.0
      ],
      "min": [
        -0.9999319911003113,
        -0.9999695420265198,
        -0.9996737241744995,
        -1.0
      ],
      "type": "VEC4"
    },
    {
      "bufferView": 2,
      "componentType": 5126,
      "count": 28156,
      "max": [
        0.9874570965766907,
        0.9999895691871643
      ],
      "min": [
        0.00012362562119960785,
        0.00013303756713867188
      ],
      "type": "VEC2"
    },
    {
      "bufferView": 1,
      "componentType": 5125,
      "count": 149991,
      "type": "SCALAR"
    },
    {
      "bufferView": 5,
      "componentType": 5126,
      "count": 36,
      "max": [
        1.0,
        0.7993319034576416,
        0.7528460621833801,
        0.0,
        0.3581249713897705,
        1.0,
        1.0,
        0.0,
        0.8431937098503113,
        0.6680187582969666,
        1.0,
        0.0,
        0.36794313788414,
        0.8096317052841187,
        0.8243105411529541,
        1.0
      ],
      "min": [
        -0.9438901543617249,
        -0.8467898964881897,
        -0.8213762044906616,
        0.0,
        -0.3581250011920929,
        -0.993624210357666,
        -0.9994150996208191,
        0.0,
        -0.9434686899185181,
        -0.6056075096130371,
        -0.8742102980613708,
        0.0,
        -0.4337565302848816,
        -1.080363154411316,
        -0.8235711455345154,
        1.0
      ],
      "type": "MAT4"
    },
    {
      "bufferView": 0,
      "componentType": 5123,
      "count": 28156,
      "type": "VEC4"
    },
    {
      "bufferView": 4,
      "byteOffset": 450496,
      "componentType": 5126,
      "count": 28156,
      "max": [
        1.0,
        0.49962669610977173,
        0.3087178170681,
        0.24293845891952515
      ],
      "min": [
        0.25577312707901,
        0.0,
        0.0,
        0.0
      ],
      "type": "VEC4"
    }
  ],
  "asset": {
    "extras": {
      "author": "dey.krishna (https://sketchfab.com/dey.krishna)",
      "license": "CC-BY-4.0 (http://creativecommons.org/licenses/by/4.0/)",
      "source": "https://sketchfab.com/3d-models/cat-c44150be0d7c42af8be967c0e99143f0",
      "title": "Cat"
    },
    "generator": "Sketchfab-16.53.0",
    "version": "2.0"
  },
  "bufferViews": [
    {
      "buffer": 0,
      "byteLength": 225248,
      "byteStride": 8,
      "name": "shortBufferViews",
      "target": 34962
    },
    {
      "buffer": 0,
      "byteLength": 599964,
      "byteOffset": 225248,
      "name": "floatBufferViews",
      "target": 34963
    },
    {
      "buffer": 0,
      "byteLength": 225248,
      "byteOffset": 825212,
      "byteStride": 8,
      "name": "floatBufferViews",
      "target": 34962
    },
    {
      "buffer": 0,
      "byteLength": 675744,
      "byteOffset": 1050460,
      "byteStride": 12,
      "name": "floatBufferViews",
      "target": 34962
    },
    {
      "buffer": 0,
      "byteLength": 900992,
      "byteOffset": 1726204,
      "byteStride": 16,
      "name": "floatBufferViews",
      "target": 34962
    },
    {
      "buffer": 0,
      "byteLength": 2304,
      "byteOffset": 2627196,
      "name": "floatBufferViews"
    }
  ],
  "buffers": [
    {
      "byteLength": 2629500,
      "uri": "scene.bin"
    }
  ],
  "images": [
    {
      "uri": "textures/tripo_mat_26b691cc-4071-4a3f-8668-02b520b4c657_baseColor.png"
    },
    {
      "uri": "textures/tripo_mat_26b691cc-4071-4a3f-8668-02b520b4c657_normal.png"
    }
  ],
  "materials": [
    {
      "doubleSided": true,
      "name": "tripo_mat_26b691cc-4071-4a3f-8668-02b520b4c657",
      "normalTexture": {
        "index": 1
      },
      "pbrMetallicRoughness": {
        "baseColorTexture": {
          "index": 0
        },
        "metallicFactor": 0.0,
        "roughnessFactor": 0.5
      }
    }
  ],
  "meshes": [
    {
      "name": "Object_0",
      "primitives": [
        {
          "attributes": {
            "JOINTS_0": 6,
            "NORMAL": 1,
            "POSITION": 0,
            "TANGENT": 2,
            "TEXCOORD_0": 3,
            "TEXCOORD_1": 3,
            "WEIGHTS_0": 7
          },
          "indices": 4,
          "material": 0,
          "mode": 4
        }
      ]
    }
  ],
  "nodes": [
    {
      "children": [
        1
      ],
      "matrix": [
        1.0,
        0.0,
        0.0,
        0.0,
        0.0,
        2.220446049250313e-16,
        -1.0,
        0.0,
        0.0,
        1.0,
        2.220446049250313e-16,
        0.0,
        0.0,
        0.0,
        0.0,
        1.0
      ],
      "name": "Sketchfab_model"
    },
    {
      "children": [
        2
      ],
      "name": "root"
    },
    {
      "children": [
        3
      ],
      "matrix": [
        1.0,
        0.0,
        0.0,
        0.0,
        0.0,
        2.220446049250313e-16,
        1.0,
        0.0,
        0.0,
        -1.0,
        2.220446049250313e-16,
        0.0,
        0.0,
        0.0,
        0.0,
        1.0
      ],
      "name": "GLTF_SceneRootNode"
    },
    {
      "children": [
        4
      ],
      "matrix": [
        0.6002616658812227,
        0.0,
        -0.7998036837083832,
        0.0,
        0.0,
        1.0,
        0.0,
        0.0,
        0.7998036837083832,
        0.0,
        0.6002616658812227,
        0.0,
        0.1582130789756775,
        0.0,
        0.04289727658033371,
        1.0
      ],
      "name": "metarig_36"
    },
    {
      "children": [
        5,
        7,
        6
      ],
      "name": "GLTF_created_0"
    },
    {
      "children": [
        8,
        42
      ],
      "name": "GLTF_created_0_rootJoint"
    },
    {
      "name": "tripo_node_26b691cc-4071-4a3f-8668-02b520b4c657_35"
    },
    {
      "mesh": 0,
      "name": "Object_7",
      "skin": 0
    },
    {
      "children": [
        9,
        13
      ],
      "name": "spine.004_33",
      "rotation": [
        0.663494884967804,
        -1.2447889385924782e-09,
        0.0,
        0.7481808066368103
      ],
      "scale": [
        1.0,
        0.9999999403953552,
        0.9999949336051941
      ],
      "translation": [
        -3.725290298461914e-09,
        0.7954000234603882,
        -0.44179999828338623
      ]
    },
    {
      "children": [
        10
      ],
      "name": "spine.003_3",
      "rotation": [
        0.9753868579864502,
        -0.14225493371486664,
        -0.05972600728273392,
        0.1575332134962082
      ],
      "scale": [
        0.9999999403953552,
        0.9999999403953552,
        1.0000001192092896
      ],
      "translation": [
        4.48746950709733e-09,
        -7.450580596923828e-09,
        6.332993507385254e-08
      ]
    },
    {
      "children": [
        11
      ],
      "name": "spine.002_2",
      "rotation": [
        -0.20354288816452026,
        0.17794638872146606,
        -0.14996899664402008,
        0.9510073065757751
      ],
      "scale": [
        0.9999999403953552,
        1.0,
        1.0000001192092896
      ],
      "translation": [
        -1.862645149230957e-09,
        0.2171514630317688,
        9.685754776000977e-08
      ]
    },
    {
      "children": [
        12
      ],
      "name": "spine.001_1",
      "rotation": [
        -0.1409682333469391,
        -0.01591574214398861,
        -0.052304841578006744,
        0.9885034561157227
      ],
      "translation": [
        7.078051567077637e-08,
        0.15230709314346313,
        -1.4901161193847656e-08
      ]
    },
    {
      "name": "spine_0",
      "rotation": [
        0.2960422933101654,
        -0.01393338292837143,
        0.019792091101408005,
        0.9548681378364563
      ],
      "scale": [
        0.9999999403953552,
        1.0,
        1.0000001192092896
      ],
      "translation": [
        -3.725290298461914e-08,
        0.3502606749534607,
        -2.2351741790771484e-08
      ]
    },
    {
      "children": [
        14,
        32,
        33,
        34,
        38
      ],
      "name": "spine.005_32",
      "rotation": [
        0.1382756233215332,
        1.869057131287377e-09,
        -7.670437618401138e-09,
        0.9903938174247742
      ],
      "scale": [
        1.0,
        0.9999999403953552,
        0.9999999403953552
      ],
      "translation": [
        -1.045280750844313e-08,
        0.08782985061407089,
        3.259629011154175e-08
      ]
    },
    {
      "children": [
        15
      ],
      "name": "spine.006_21",
      "rotation": [
        -0.0615866482257843,
        0.0,
        -7.464751483610144e-09,
        0.9981017708778381
      ],
      "scale": [
        1.0,
        0.9999999403953552,
        0.9999999403953552
      ],
      "translation": [
        8.381903171539307e-09,
        0.17648740112781525,
        7.974449545145035e-08
      ]
    },
    {
      "children": [
        16
      ],
      "name": "spine.007_20",
      "rotation": [
        -0.09865383058786392,
        0.0,
        1.4974208539797473e-08,
        0.9951218366622925
      ],
      "scale": [
        1.0,
        1.0000001192092896,
        1.0
      ],
      "translation": [
        1.862645149230957e-09,
        0.1484876424074173,
        -7.683411240577698e-09
      ]
    },
    {
      "children": [
        17,
        20,
        25,
        30,
        31
      ],
      "name": "spine.008_19",
      "rotation": [
        0.0008470969623886049,
        -1.862645815364772e-09,
        -7.450585037815927e-09,
        0.9999996423721313
      ],
      "scale": [
        1.0,
        0.9999998211860657,
        1.0
      ],
      "translation": [
        1.862645149230957e-08,
        0.1316508948802948,
        -4.190951585769653e-08
      ]
    },
    {
      "children": [
        18
      ],
      "name": "spine.009_6",
      "rotation": [
        -0.0788213312625885,
        1.7739661961613251e-09,
        5.866696572986996e-10,
        0.9968888163566589
      ],
      "scale": [
        1.0,
        0.9999999403953552,
        1.0
      ],
      "translation": [
        -6.239893934889551e-09,
        0.26728159189224243,
        -4.284083843231201e-08
      ]
    },
    {
      "children": [
        19
      ],
      "name": "spine.010_5",
      "rotation": [
        -0.0007092246669344604,
        3.725291186640334e-09,
        -1.4901164746561335e-08,
        0.9999997615814209
      ],
      "translation": [
        1.862645149230957e-08,
        0.06688240170478821,
        4.0978193283081055e-08
      ]
    },
    {
      "name": "spine.011_4",
      "rotation": [
        -0.23995104432106018,
        0.03165701404213905,
        -0.02974763512611389,
        0.9698125720024109
      ],
      "scale": [
        0.9999998807907104,
        0.9999998807907104,
        0.9999999403953552
      ],
      "translation": [
        -2.800829079774303e-08,
        0.06691388785839081,
        5.960464477539063e-08
      ]
    },
    {
      "children": [
        21
      ],
      "name": "shoulder.L_11",
      "rotation": [
        0.5975068211555481,
        0.1626581847667694,
        -0.08201122283935547,
        0.7808982729911804
      ],
      "scale": [
        0.9999999403953552,
        0.9999998807907104,
        0.9999999403953552
      ],
      "translation": [
        0.059599995613098145,
        0.17269641160964966,
        -0.06617919355630875
      ]
    },
    {
      "children": [
        22
      ],
      "name": "front_thigh.L_10",
      "rotation": [
        0.4229153096675873,
        0.018365049734711647,
        0.12886925041675568,
        0.8967709541320801
      ],
      "scale": [
        0.9999998807907104,
        0.9999999403953552,
        1.0
      ],
      "translation": [
        -0.009214960038661957,
        0.21319958567619324,
        0.033033162355422974
      ]
    },
    {
      "children": [
        23
      ],
      "name": "front_shin.L_9",
      "rotation": [
        -0.16732244193553925,
        0.006095167715102434,
        0.17180399596691132,
        0.9707983732223511
      ],
      "scale": [
        1.0,
        0.9999999403953552,
        0.9999998807907104
      ],
      "translation": [
        0.0,
        0.25587227940559387,
        -1.4901161193847656e-08
      ]
    },
    {
      "children": [
        24
      ],
      "name": "front_foot.L_8",
      "rotation": [
        -0.16079415380954742,
        0.025906996801495552,
        -0.12752707302570343,
        0.9783715605735779
      ],
      "scale": [
        1.0000001192092896,
        1.0,
        1.0
      ],
      "translation": [
        2.9802322387695313e-08,
        0.30727052688598633,
        -3.166496753692627e-08
      ]
    },
    {
      "name": "front_toe.L_7",
      "rotation": [
        -0.07735738158226013,
        0.9847298264503479,
        -0.15089116990566254,
        0.039431456476449966
      ],
      "scale": [
        1.0,
        1.000000238418579,
        0.9999998211860657
      ],
      "translation": [
        6.05359673500061e-09,
        0.13252505660057068,
        4.6566128730773926e-08
      ]
    },
    {
      "children": [
        26
      ],
      "name": "shoulder.R_16",
      "rotation": [
        0.5975068211555481,
        -0.16265816986560822,
        0.08201120048761368,
        0.7808982729911804
      ],
      "scale": [
        1.0,
        0.9999998807907104,
        0.9999998807907104
      ],
      "translation": [
        -0.05959998816251755,
        0.17269641160964966,
        -0.06617918610572815
      ]
    },
    {
      "children": [
        27
      ],
      "name": "front_thigh.R_15",
      "rotation": [
        0.3735577464103699,
        0.011099058203399181,
        -0.18182499706745148,
        0.9095444679260254
      ],
      "scale": [
        1.0,
        1.0,
        1.0000001192092896
      ],
      "translation": [
        0.009215041995048523,
        0.21319961547851563,
        0.033033132553100586
      ]
    },
    {
      "children": [
        28
      ],
      "name": "front_shin.R_14",
      "rotation": [
        -0.035587161779403687,
        0.023912498727440834,
        0.018628107383847237,
        0.9989067912101746
      ],
      "scale": [
        0.9999999403953552,
        0.9999999403953552,
        0.9999998807907104
      ],
      "translation": [
        1.6635585353697024e-08,
        0.26475220918655396,
        -2.9802322387695313e-08
      ]
    },
    {
      "children": [
        29
      ],
      "name": "front_foot.R_13",
      "rotation": [
        -0.218097522854805,
        -0.021565794944763184,
        -0.03001760132610798,
        0.9752268195152283
      ],
      "scale": [
        0.9999998807907104,
        1.0000001192092896,
        1.0
      ],
      "translation": [
        -2.8870999813079834e-08,
        0.28348153829574585,
        7.450580596923828e-09
      ]
    },
    {
      "name": "front_toe.R_12",
      "rotation": [
        0.058369800448417664,
        -0.8445926308631897,
        0.5313906073570251,
        0.029669111594557762
      ],
      "scale": [
        1.0,
        0.9999996423721313,
        1.0
      ],
      "translation": [
        -3.364402800798416e-08,
        0.20019739866256714,
        1.3969838619232178e-09
      ]
    },
    {
      "name": "breast.L_17",
      "rotation": [
        0.4457293748855591,
        1.5047844081905737e-09,
        -1.4371016598957453e-09,
        0.8951677680015564
      ],
      "translation": [
        0.034000005573034286,
        0.05005427449941635,
        0.13673445582389832
      ]
    },
    {
      "name": "breast.R_18",
      "rotation": [
        0.4457293748855591,
        1.5047844081905737e-09,
        -1.4371016598957453e-09,
        0.8951677680015564
      ],
      "translation": [
        -0.03399999812245369,
        0.05005428194999695,
        0.13673445582389832
      ]
    },
    {
      "name": "pelvis.L_22",
      "rotation": [
        -0.4270009994506836,
        -0.6942672729492188,
        0.4592827260494232,
        0.3531607389450073
      ],
      "scale": [
        0.9999998807907104,
        0.9999998807907104,
        0.9999998807907104
      ],
      "translation": [
        7.450580596923828e-09,
        0.01080343872308731,
        0.2024141401052475
      ]
    },
    {
      "name": "pelvis.R_23",
      "rotation": [
        -0.4270009994506836,
        0.6942672729492188,
        -0.4592827260494232,
        0.3531607389450073
      ],
      "scale": [
        0.9999998807907104,
        0.9999998807907104,
        0.9999999403953552
      ],
      "translation": [
        7.450580596923828e-09,
        0.01080343872308731,
        0.2024141401052475
      ]
    },
    {
      "children": [
        35
      ],
      "name": "thigh.L_27",
      "rotation": [
        0.7413471341133118,
        0.06434620916843414,
        0.018682176247239113,
        0.6677687168121338
      ],
      "scale": [
        0.9999999403953552,
        0.9999998807907104,
        0.9999999403953552
      ],
      "translation": [
        0.03759576380252838,
        0.0879262238740921,
        0.05488033965229988
      ]
    },
    {
      "children": [
        36
      ],
      "name": "shin.L_26",
      "rotation": [
        0.2632085978984833,
        -0.02722753956913948,
        -0.03958062082529068,
        0.9635420441627502
      ],
      "scale": [
        1.0,
        1.0000001192092896,
        1.0
      ],
      "translation": [
        -1.862645149230957e-09,
        0.3557133376598358,
        7.450580596923828e-09
      ]
    },
    {
      "children": [
        37
      ],
      "name": "foot.L_25",
      "rotation": [
        -0.4250999391078949,
        -0.04408052936196327,
        0.05519840121269226,
        0.9023857712745667
      ],
      "translation": [
        3.5390257835388184e-08,
        0.3260970115661621,
        -7.450580596923828e-09
      ]
    },
    {
      "name": "toe.L_24",
      "rotation": [
        -0.023604147136211395,
        0.8317034244537354,
        -0.55438232421875,
        0.01930115930736065
      ],
      "scale": [
        1.0000001192092896,
        1.0000003576278687,
        1.0
      ],
      "translation": [
        -8.847564458847046e-09,
        0.2075253278017044,
        -1.7462298274040222e-08
      ]
    },
    {
      "children": [
        39
      ],
      "name": "thigh.R_31",
      "rotation": [
        0.658362090587616,
        -0.0340101383626461,
        0.11176516860723495,
        0.7435799837112427
      ],
      "scale": [
        1.0,
        0.9999998807907104,
        1.0
      ],
      "translation": [
        -0.1248999834060669,
        0.02321545034646988,
        0.06516432017087936
      ]
    },
    {
      "children": [
        40
      ],
      "name": "shin.R_30",
      "rotation": [
        0.3344707787036896,
        -0.07866954803466797,
        -0.09083801507949829,
        0.9347133040428162
      ],
      "scale": [
        1.0,
        1.0000001192092896,
        1.0
      ],
      "translation": [
        -1.0244548320770264e-08,
        0.35137930512428284,
        1.4901161193847656e-08
      ]
    },
    {
      "children": [
        41
      ],
      "name": "foot.R_29",
      "rotation": [
        -0.4870052933692932,
        -0.0070299431681632996,
        0.0014071587938815355,
        0.8733696341514587
      ],
      "scale": [
        0.9999999403953552,
        0.9999998211860657,
        0.9999999403953552
      ],
      "translation": [
        9.080395102500916e-09,
        0.30085328221321106,
        2.9802322387695313e-08
      ]
    },
    {
      "name": "toe.R_28",
      "rotation": [
        -0.005380694288760424,
        0.8833857774734497,
        -0.46860772371292114,
        0.0027334580663591623
      ],
      "scale": [
        0.9999999403953552,
        0.9999997615814209,
        0.9999998807907104
      ],
      "translation": [
        5.8353180065751076e-08,
        0.21556778252124786,
        -1.862645149230957e-09
      ]
    },
    {
      "name": "neutral_bone_34",
      "rotation": [
        -0.7071068286895752,
        0.0,
        0.0,
        0.7071068286895752
      ]
    }
  ],
  "samplers": [
    {
      "magFilter": 9729,
      "minFilter": 9987,
      "wrapS": 10497,
      "wrapT": 10497
    }
  ],
  "scene": 0,
  "scenes": [
    {
      "name": "Sketchfab_Scene",
      "nodes": [
        0
      ]
    }
  ],
  "skins": [
    {
      "inverseBindMatrices": 5,
      "joints": [
        5,
        8,
        9,
        10,
        11,
        12,
        13,
        14,
        15,
        16,
        17,
        18,
        19,
        20,
        21,
        22,
        23,
        24,
        25,
        26,
        27,
        28,
        29,
        30,
        31,
        32,
        33,
        34,
        35,
        36,
        37,
        38,
        39,
        40,
        41,
        42
      ],
      "skeleton": 5
    }
  ],
  "textures": [
    {
      "sampler": 0,
      "source": 0
    },
    {
      "sampler": 0,
      "source": 1
    }
  ]
}
